<svg id="wave" style="transform:rotate(180deg); transition: 0.3s" viewBox="0 0 1440 490" version="1.1" xmlns="http://www.w3.org/2000/svg"><defs><linearGradient id="sw-gradient-0" x1="0" x2="0" y1="1" y2="0"><stop stop-color="rgba(214, 189, 206, 1)" offset="0%"></stop><stop stop-color="rgba(210, 189, 214, 1)" offset="100%"></stop></linearGradient></defs><path style="transform:translate(0, 0px); opacity:1" fill="url(#sw-gradient-0)" d="M0,147L10,147C20,147,40,147,60,163.3C80,180,100,212,120,204.2C140,196,160,147,180,138.8C200,131,220,163,240,179.7C260,196,280,196,300,228.7C320,261,340,327,360,326.7C380,327,400,261,420,253.2C440,245,460,294,480,318.5C500,343,520,343,540,351.2C560,359,580,376,600,326.7C620,278,640,163,660,155.2C680,147,700,245,720,302.2C740,359,760,376,780,383.8C800,392,820,392,840,375.7C860,359,880,327,900,326.7C920,327,940,359,960,318.5C980,278,1000,163,1020,155.2C1040,147,1060,245,1080,245C1100,245,1120,147,1140,106.2C1160,65,1180,82,1200,114.3C1220,147,1240,196,1260,253.2C1280,310,1300,376,1320,408.3C1340,441,1360,441,1380,400.2C1400,359,1420,278,1430,236.8L1440,196L1440,490L1430,490C1420,490,1400,490,1380,490C1360,490,1340,490,1320,490C1300,490,1280,490,1260,490C1240,490,1220,490,1200,490C1180,490,1160,490,1140,490C1120,490,1100,490,1080,490C1060,490,1040,490,1020,490C1000,490,980,490,960,490C940,490,920,490,900,490C880,490,860,490,840,490C820,490,800,490,780,490C760,490,740,490,720,490C700,490,680,490,660,490C640,490,620,490,600,490C580,490,560,490,540,490C520,490,500,490,480,490C460,490,440,490,420,490C400,490,380,490,360,490C340,490,320,490,300,490C280,490,260,490,240,490C220,490,200,490,180,490C160,490,140,490,120,490C100,490,80,490,60,490C40,490,20,490,10,490L0,490Z"></path></svg>